<svg xmlns="http://www.w3.org/2000/svg" width="520" height="120" viewBox="0 0 520 120" role="img" aria-label="ReviewFlow AI wordmark pill">
  <defs><style>.rf-font { font-family: 'Segoe UI', Roboto, 'Helvetica Neue', Arial, sans-serif; }</style></defs>
  <g id="monogram" transform="translate(8,8)">
    <polygon points="68,18 108,8 108,24 68,32" fill="hsl(45 100% 64.5%)"/>
    <polygon points="68,38 98,30 98,44 68,50" fill="hsl(45 100% 64.5%)"/>
    <path fill-rule="evenodd" d="M 18,4 H 54 Q 72,4 72,20 V 58 Q 72,74 54,74 H 32 L 16,94 L 22,74 H 18 Q 4,74 4,58 V 20 Q 4,4 18,4 Z M 18,16 H 48 Q 60,16 60,28 Q 60,40 48,40 H 40 L 58,64 H 44 L 30,42 V 64 H 18 Z M 30,24 V 34 H 44 Q 50,34 50,29 Q 50,24 44,24 Z" fill="hsl(220 69% 40%)"/>
  </g>
  <text x="130" y="70" class="rf-font" font-weight="700" font-size="44" fill="hsl(217 41% 10%)">ReviewFlow</text>
  <g id="ai-pill" transform="translate(420,32)">
    <rect x="0" y="0" rx="16" ry="16" width="76" height="42" fill="hsl(45 100% 64.5%)"/>
    <text x="38" y="29" class="rf-font" font-weight="800" font-size="22" fill="hsl(0 0% 100%)" text-anchor="middle">AI</text>
  </g>
</svg>
